<svg width="263" height="49" viewBox="0 0 263 49" fill="none" xmlns="http://www.w3.org/2000/svg">
<path d="M75.056 11.088H80.016L88.624 34H83.856L81.936 28.528H73.168L71.248 34H66.48L75.056 11.088ZM80.528 24.56L78.512 18.8L77.68 16.048H77.424L76.592 18.8L74.544 24.56H80.528ZM97.3498 34.512C95.3658 34.512 93.7551 34.1067 92.5178 33.296C91.3018 32.4853 90.4484 31.4293 89.9578 30.128L93.7018 28.496C94.0431 29.264 94.5231 29.8507 95.1418 30.256C95.7818 30.64 96.5178 30.832 97.3498 30.832C98.1178 30.832 98.7578 30.7147 99.2698 30.48C99.7818 30.224 100.038 29.8187 100.038 29.264C100.038 28.7307 99.8031 28.336 99.3338 28.08C98.8644 27.8027 98.1604 27.5573 97.2218 27.344L95.3018 26.928C93.9791 26.608 92.8804 26.032 92.0058 25.2C91.1311 24.3467 90.6938 23.2907 90.6938 22.032C90.6938 21.0933 90.9711 20.2507 91.5258 19.504C92.1018 18.7573 92.8698 18.1813 93.8298 17.776C94.8111 17.3707 95.8884 17.168 97.0618 17.168C100.432 17.168 102.683 18.352 103.814 20.72L100.23 22.288C99.5898 21.136 98.5658 20.56 97.1578 20.56C96.4324 20.56 95.8564 20.6987 95.4298 20.976C95.0031 21.232 94.7898 21.5627 94.7898 21.968C94.7898 22.736 95.5151 23.312 96.9658 23.696L99.3658 24.272C100.987 24.6773 102.203 25.296 103.014 26.128C103.846 26.96 104.262 27.984 104.262 29.2C104.262 30.2453 103.952 31.1733 103.334 31.984C102.736 32.7733 101.904 33.392 100.838 33.84C99.7924 34.288 98.6298 34.512 97.3498 34.512ZM107.298 11.088H111.49V23.568H111.714L117.57 17.68H122.722V17.936L116.546 23.984L123.01 33.744V34H118.05L113.602 26.864L111.49 28.944V34H107.298V11.088ZM133.249 11.088H137.569V29.904H147.265V34H133.249V11.088ZM152.666 15.888C151.919 15.888 151.279 15.6213 150.746 15.088C150.213 14.5547 149.946 13.9147 149.946 13.168C149.946 12.4213 150.213 11.792 150.746 11.28C151.279 10.7467 151.919 10.48 152.666 10.48C153.413 10.48 154.042 10.7467 154.554 11.28C155.087 11.792 155.354 12.4213 155.354 13.168C155.354 13.9147 155.087 14.5547 154.554 15.088C154.042 15.6213 153.413 15.888 152.666 15.888ZM150.554 17.68H154.746V34H150.554V17.68ZM159.142 17.68H163.078V19.728H163.334C163.824 18.9387 164.518 18.32 165.414 17.872C166.31 17.4027 167.28 17.168 168.326 17.168C170.288 17.168 171.782 17.7653 172.806 18.96C173.83 20.1547 174.342 21.7867 174.342 23.856V34H170.15V24.368C170.15 23.3227 169.883 22.512 169.35 21.936C168.816 21.36 168.07 21.072 167.11 21.072C165.979 21.072 165.062 21.5093 164.358 22.384C163.675 23.2587 163.334 24.3573 163.334 25.68V34H159.142V17.68ZM190.202 34.352L190.458 32.048H190.202C189.775 32.752 189.125 33.3387 188.25 33.808C187.397 34.2773 186.415 34.512 185.306 34.512C183.834 34.512 182.49 34.1493 181.274 33.424C180.079 32.6773 179.13 31.6533 178.426 30.352C177.743 29.0293 177.402 27.5253 177.402 25.84C177.402 24.176 177.743 22.6827 178.426 21.36C179.13 20.0373 180.079 19.0133 181.274 18.288C182.49 17.5413 183.834 17.168 185.306 17.168C186.415 17.168 187.397 17.4133 188.25 17.904C189.103 18.3733 189.754 18.96 190.202 19.664H190.458V17.68H194.362V40.912H190.202V34.352ZM186.01 30.64C186.799 30.64 187.535 30.4373 188.218 30.032C188.901 29.6267 189.445 29.0613 189.85 28.336C190.255 27.6107 190.458 26.7787 190.458 25.84C190.458 24.9013 190.255 24.0693 189.85 23.344C189.445 22.6187 188.901 22.064 188.218 21.68C187.535 21.2747 186.799 21.072 186.01 21.072C185.242 21.072 184.517 21.2747 183.834 21.68C183.151 22.064 182.607 22.6187 182.202 23.344C181.797 24.0693 181.594 24.9013 181.594 25.84C181.594 26.7787 181.797 27.6107 182.202 28.336C182.607 29.0613 183.151 29.6267 183.834 30.032C184.517 30.4373 185.242 30.64 186.01 30.64ZM198.937 11.088H207.897C209.177 11.088 210.35 11.3547 211.417 11.888C212.505 12.4213 213.358 13.1467 213.977 14.064C214.595 14.9813 214.905 15.984 214.905 17.072C214.905 18.224 214.617 19.2267 214.041 20.08C213.486 20.912 212.75 21.552 211.833 22V22.256C213.027 22.6827 213.977 23.3653 214.681 24.304C215.385 25.2213 215.737 26.3307 215.737 27.632C215.737 28.8907 215.395 30.0107 214.713 30.992C214.051 31.952 213.145 32.6987 211.993 33.232C210.862 33.744 209.603 34 208.217 34H198.937V11.088ZM207.577 20.432C208.515 20.432 209.262 20.176 209.817 19.664C210.393 19.1307 210.681 18.4693 210.681 17.68C210.681 16.912 210.403 16.272 209.849 15.76C209.315 15.2267 208.601 14.96 207.705 14.96H203.257V20.432H207.577ZM208.057 30.064C209.102 30.064 209.913 29.7973 210.489 29.264C211.086 28.7093 211.385 27.9947 211.385 27.12C211.385 26.2453 211.086 25.5307 210.489 24.976C209.891 24.4213 209.038 24.144 207.929 24.144H203.257V30.064H208.057ZM226.887 34.512C225.202 34.512 223.698 34.1387 222.375 33.392C221.053 32.624 220.018 31.5893 219.271 30.288C218.546 28.9653 218.183 27.4827 218.183 25.84C218.183 24.2187 218.546 22.7467 219.271 21.424C220.018 20.1013 221.053 19.0667 222.375 18.32C223.698 17.552 225.202 17.168 226.887 17.168C228.551 17.168 230.045 17.552 231.367 18.32C232.69 19.0667 233.714 20.1013 234.439 21.424C235.186 22.7467 235.559 24.2187 235.559 25.84C235.559 27.4827 235.186 28.9653 234.439 30.288C233.714 31.5893 232.69 32.624 231.367 33.392C230.045 34.1387 228.551 34.512 226.887 34.512ZM226.887 30.64C227.698 30.64 228.445 30.448 229.127 30.064C229.81 29.68 230.354 29.1253 230.759 28.4C231.165 27.6747 231.367 26.8213 231.367 25.84C231.367 24.88 231.165 24.0373 230.759 23.312C230.354 22.5867 229.81 22.032 229.127 21.648C228.445 21.264 227.698 21.072 226.887 21.072C226.077 21.072 225.33 21.264 224.647 21.648C223.965 22.032 223.41 22.5867 222.983 23.312C222.578 24.0373 222.375 24.88 222.375 25.84C222.375 26.8 222.578 27.6533 222.983 28.4C223.41 29.1253 223.965 29.68 224.647 30.064C225.33 30.448 226.077 30.64 226.887 30.64ZM245.402 34.256C244.591 34.256 243.845 34.1387 243.162 33.904C242.479 33.648 241.925 33.3067 241.498 32.88C240.495 31.92 239.994 30.5547 239.994 28.784V21.264H237.146V17.68H239.994V13.072H244.186V17.68H248.186V21.264H244.186V28.016C244.186 28.848 244.367 29.4453 244.73 29.808C245.029 30.1493 245.541 30.32 246.266 30.32C246.671 30.32 247.002 30.2667 247.258 30.16C247.535 30.0533 247.887 29.872 248.314 29.616V33.712C247.397 34.0747 246.426 34.256 245.402 34.256Z" fill="white"/>
<path d="M24.25 47.5C28.8484 47.5 33.3436 46.1364 37.167 43.5817C40.9905 41.0269 43.9705 37.3958 45.7302 33.1474C47.4899 28.899 47.9504 24.2242 47.0533 19.7142C46.1562 15.2041 43.9418 11.0613 40.6902 7.80978C37.4387 4.55821 33.2959 2.34386 28.7859 1.44675C24.2758 0.549646 19.601 1.01007 15.3526 2.76981C11.1042 4.52955 7.47308 7.50956 4.91833 11.333C2.36359 15.1564 1 19.6516 1 24.25C1 27.97 1.87317 31.4833 3.42833 34.6014C4.59858 36.9548 2.97108 40.1298 2.35108 42.447C2.21373 42.9595 2.2137 43.4991 2.35101 44.0117C2.48833 44.5242 2.75813 44.9915 3.13332 45.3667C3.5085 45.7419 3.97584 46.0117 4.48835 46.149C5.00087 46.2863 5.5405 46.2863 6.053 46.1489C8.37025 45.5289 11.5452 43.9014 13.8986 45.0743C17.1154 46.6715 20.6585 47.5018 24.25 47.5Z" stroke="#F3FF10" stroke-width="1.5" stroke-linecap="round" stroke-linejoin="round"/>
</svg>
